<svg width="100" height="100" viewBox="0 0 100 100" fill="none" xmlns="http://www.w3.org/2000/svg">
<path fill-rule="evenodd" clip-rule="evenodd" d="M33.3333 66.6667V87.5H66.6667V66.6667H87.5V33.3333H66.6667V12.5H33.3333V33.3333H12.5V66.6667H33.3333ZM55.2083 34.3813H49.7292C49.5352 34.3694 49.3412 34.4029 49.1625 34.4792C47.4229 35.3271 46.3312 36.825 45.6625 38.6C45.5375 38.9278 45.4292 39.2576 45.3375 39.5896H41.05C41.2208 38.7833 41.4521 37.95 41.7646 37.1271C42.6854 34.6875 44.3667 32.1833 47.3354 30.7333C48.0837 30.3789 48.9033 30.2007 49.7313 30.2125H55.2104C55.7629 30.2125 56.2929 30.432 56.6836 30.8227C57.0743 31.2134 57.2937 31.7433 57.2937 32.2958C57.2937 32.8484 57.0743 33.3783 56.6836 33.769C56.2929 34.1597 55.7629 34.3792 55.2104 34.3792M37.5021 41.6708C36.3521 41.6708 35.3917 42.6208 35.7042 43.7292C36.9062 48.0187 41.8 51.3563 47.9187 51.9813V55.2271C46.4708 55.2625 44.9667 55.3792 43.6896 55.75C42.6938 56.0417 41.6375 56.5375 40.8292 57.4458C39.9833 58.3958 39.5854 59.5958 39.5854 60.9354C39.5854 62.275 39.9812 63.4771 40.8271 64.4292C41.6354 65.3396 42.6917 65.8396 43.6896 66.1312C44.3563 66.325 45.0854 66.45 45.8354 66.5292V62.3354C45.5046 62.2905 45.1774 62.2223 44.8563 62.1312C44.2937 61.9646 44.0458 61.7812 43.9438 61.6646C43.8771 61.5896 43.7521 61.4208 43.7521 60.9354C43.7521 60.4562 43.8771 60.2896 43.9396 60.2167C44.0437 60.1 44.2896 59.9146 44.8563 59.75C45.6542 59.5187 46.6833 59.4312 47.9187 59.3979V70.8375H41.6687V75.0042H58.3354V70.8375H52.0854V59.3021C54.3812 59.1229 56.2417 58.6187 57.6417 57.7167C59.6104 56.4458 60.4187 54.5563 60.4187 52.55C60.4353 51.4785 60.1694 50.4216 59.6479 49.4854C61.9896 48.0062 63.6625 46.0021 64.3 43.7292C64.6125 42.6208 63.6542 41.6708 62.5021 41.6708H37.5021ZM52.0854 55.1188C53.7708 54.9562 54.7937 54.5938 55.3833 54.2146C56.0187 53.8042 56.2521 53.3229 56.2521 52.55C56.2521 51.9646 56.1187 51.5667 55.775 51.2375C54.5739 51.6084 53.3385 51.8576 52.0875 51.9813L52.0854 55.1188Z" fill="white"/>
</svg>
