<svg width="34" height="32" viewBox="0 0 34 32" fill="none" xmlns="http://www.w3.org/2000/svg">
<path d="M6.10992 18.7544L9.04083 16.7103C9.83088 16.152 10.7186 15.7408 11.6597 15.4975C12.7577 15.2101 13.2497 14.6206 13.2497 13.3635C13.2497 10.1728 20.7495 9.83389 20.7495 13.3635C20.7495 14.6206 21.2415 15.2101 22.3394 15.496C23.3024 15.7495 24.1394 16.1371 24.9583 16.7103L27.8892 18.7529C29.2137 19.6784 29.8317 20.125 30.1752 20.8368C30.4992 21.5059 30.4992 22.2899 30.4992 23.858C30.4992 26.6787 30.4992 28.0891 29.6952 28.9925C28.7217 30.0874 26.1913 29.9946 24.6373 29.9946H9.36182C7.80787 29.9946 5.32844 30.1464 4.30398 28.9925C3.5 28.0891 3.5 26.6787 3.5 23.858C3.5 22.2899 3.5 21.5059 3.82399 20.8368C4.16898 20.1265 4.78396 19.6784 6.10992 18.7529" stroke="white" stroke-width="3" stroke-linecap="round" stroke-linejoin="round"/>
<path d="M9.44002 3.02793C7.46308 3.58206 6.04113 4.27029 4.73917 5.10148C2.67973 6.41605 1.79626 8.78435 2.03925 11.0701C2.14125 12.0369 2.93172 12.4996 3.84669 12.2491C4.54267 12.0575 5.23865 11.8733 5.93013 11.6729C7.95057 11.0834 8.42605 10.3671 8.70655 8.33486L9.44002 3.02793ZM9.44002 3.02793C14.3284 1.65736 19.6712 1.65736 24.5596 3.02793M24.5596 3.02793C26.5365 3.58206 27.9585 4.27029 29.2604 5.10148C31.3198 6.41605 32.2033 8.78435 31.9603 11.0701C31.8583 12.0369 31.0679 12.4996 30.1529 12.2491C29.4584 12.0575 28.7609 11.8733 28.0694 11.6729C26.049 11.0834 25.5735 10.3671 25.293 8.33486L24.5596 3.02793ZM19.9997 22.6316C19.9997 23.4133 19.6836 24.163 19.121 24.7158C18.5585 25.2685 17.7954 25.5791 16.9998 25.5791C16.2042 25.5791 15.4411 25.2685 14.8785 24.7158C14.3159 24.163 13.9999 23.4133 13.9999 22.6316C13.9999 21.8499 14.3159 21.1002 14.8785 20.5474C15.4411 19.9946 16.2042 19.6841 16.9998 19.6841C17.7954 19.6841 18.5585 19.9946 19.121 20.5474C19.6836 21.1002 19.9997 21.8499 19.9997 22.6316Z" stroke="white" stroke-width="3" stroke-linecap="round" stroke-linejoin="round"/>
</svg>
