<svg width="100" height="100" viewBox="0 0 100 100" fill="none" xmlns="http://www.w3.org/2000/svg">
<path fill-rule="evenodd" clip-rule="evenodd" d="M70.4875 28.7715C70.4875 35.9819 68.6959 45.3861 65.9396 43.959C64.8125 47.6396 62.4463 50.8168 59.2428 52.9509C56.0392 55.085 52.1957 56.0446 48.365 55.6667C44.5342 55.2888 40.9523 53.5967 38.2275 50.8778C35.5027 48.1588 33.8029 44.5806 33.4167 40.7507C30.6813 35.9652 27.0938 26.3757 36.3167 18.9007C36.4834 18.8465 36.5834 18.3965 36.7334 17.734C37.3042 15.2277 38.5688 9.65692 46.5459 10.7215C52.698 11.5402 70.4875 14.7153 70.4875 28.7715ZM62.5584 33.3194C62.5584 33.3194 61.6167 36.0736 62.5 39.1423C62.4886 42.4144 61.1945 45.5515 58.8958 47.8801C56.5971 50.2087 53.477 51.5431 50.2054 51.5968C46.9337 51.6505 43.7715 50.4193 41.3975 48.1674C39.0236 45.9156 37.6273 42.8227 37.5084 39.5528C37.8105 38.4069 37.8105 36.4673 37.8084 34.3111C37.8063 30.4215 37.8021 25.8319 39.5834 23.9611C52.0605 32.2715 62.5584 33.3194 62.5584 33.3194Z" fill="white"/>
<path d="M27.0833 75.0001C27.0833 72.7459 28.2771 70.7709 30.0687 69.6709C30.0007 69.4115 29.9368 69.1511 29.8771 68.8896C29.5622 67.4661 29.3154 66.0284 29.1375 64.5813C28.9598 63.1946 28.852 61.7997 28.8146 60.4021C20.0208 63.8542 12.5 69.8709 12.5 76.1876V87.5001H87.5V76.1876C87.5 70.1376 80.6042 64.3646 72.2958 60.8542V60.9126C72.3333 62.1834 72.2625 63.6417 72.125 65.0438C72 66.3438 71.8146 67.6396 71.5917 68.7501H72.9167C73.3035 68.7503 73.6826 68.8581 74.0115 69.0616C74.3405 69.2651 74.6063 69.5561 74.7792 69.9021L76.8625 74.0688C77.0083 74.3584 77.0833 74.6771 77.0833 75.0001V79.1667C77.0833 79.7193 76.8638 80.2492 76.4731 80.6399C76.0824 81.0306 75.5525 81.2501 75 81.2501H70.8333V77.0834H72.9167V75.4917L71.6292 72.9167H65.8708L64.5833 75.4917V77.0834H66.6667V81.2501H62.5C61.9475 81.2501 61.4176 81.0306 61.0269 80.6399C60.6362 80.2492 60.4167 79.7193 60.4167 79.1667V75.0001C60.4167 74.6771 60.4917 74.3584 60.6375 74.0688L62.7208 69.9021C62.8937 69.5561 63.1595 69.2651 63.4885 69.0616C63.8174 68.8581 64.1965 68.7503 64.5833 68.7501H67.3229C67.3687 68.5709 67.4146 68.3723 67.4604 68.1542C67.6688 67.173 67.8542 65.9292 67.9792 64.6438C68.1042 63.3563 68.1625 62.0792 68.1312 61.0292C68.1244 60.5942 68.0903 60.16 68.0292 59.7292C67.9833 59.4334 67.9375 59.298 67.9292 59.2688C67.9264 59.2619 67.9264 59.2605 67.9292 59.2646L67.9354 59.2626C66.8298 58.9196 65.7117 58.6187 64.5833 58.3605C63.5354 58.1209 62.4521 59.5626 61.9792 60.4646H37.5L37.3208 60.1146C36.8792 59.2355 36.3354 58.1501 35.4167 58.3605C34.6139 58.5424 33.8118 58.7487 33.0104 58.9792C32.9855 59.3446 32.9744 59.7109 32.9771 60.0771C32.9854 61.2292 33.0958 62.6396 33.2729 64.0646C33.45 65.4855 33.6896 66.8688 33.9396 67.9605C34.0118 68.2757 34.0813 68.5563 34.1479 68.8021C35.339 68.9587 36.4597 69.4552 37.3759 70.2323C38.2921 71.0093 38.9649 72.0339 39.3139 73.1834C39.6628 74.3329 39.6731 75.5586 39.3434 76.7138C39.0138 77.869 38.3582 78.9048 37.4552 79.697C36.5521 80.4893 35.4399 81.0045 34.2516 81.181C33.0633 81.3575 31.8494 81.1878 30.755 80.6922C29.6607 80.1967 28.7324 79.3962 28.0812 78.3867C27.43 77.3772 27.0836 76.2014 27.0833 75.0001Z" fill="white"/>
<path d="M35.4167 74.9993C35.4167 76.1952 34.4542 77.1139 33.3333 77.1139C32.2125 77.1139 31.25 76.1973 31.25 74.9993C31.25 73.8035 32.2125 72.8848 33.3333 72.8848C34.4542 72.8848 35.4167 73.8014 35.4167 74.9993Z" fill="white"/>
</svg>
