<svg width="100" height="80" viewBox="0 0 100 80" fill="none" xmlns="http://www.w3.org/2000/svg">
<path d="M26.4103 0.00551622C12.1538 0.00551622 0 11.4801 0 26.375C0 36.6524 4.47179 45.3025 10.4 52.4686C16.3128 59.6126 23.9385 65.6092 30.8256 70.6293L42.7179 79.2904C43.354 79.7529 44.1041 80 44.8718 80C45.6395 80 46.3896 79.7529 47.0256 79.2904L58.918 70.6293C61.1231 69.024 63.4 67.3193 65.6718 65.5099C65.9605 65.2805 66.1649 64.9492 66.2493 64.574C66.3337 64.1988 66.2926 63.8036 66.1333 63.4577L59.1333 48.2759C59.0575 48.1113 58.9446 47.9697 58.805 47.8639C58.6653 47.7582 58.5034 47.6916 58.3337 47.6702C58.1641 47.6488 57.9922 47.6733 57.8336 47.7416C57.675 47.8098 57.5348 47.9195 57.4256 48.0608L57.0513 48.5463C56.0893 49.8019 54.8809 50.8132 53.5129 51.5075C52.1449 52.2018 50.6511 52.5621 49.1385 52.5624H39.7436C37.0234 52.5624 34.4147 51.3999 32.4912 49.3308C30.5678 47.2617 29.4872 44.4553 29.4872 41.5291C29.4872 38.6029 30.5678 35.7966 32.4912 33.7274C34.4147 31.6583 37.0234 30.4959 39.7436 30.4959H43.3436C43.6466 30.4959 43.9459 30.4236 44.2199 30.2844C44.4939 30.1451 44.7358 29.9423 44.9282 29.6905L52.9846 19.1813C54.0905 17.7395 55.5188 16.6235 57.1355 15.9382C58.7521 15.2529 60.5041 15.0207 62.2271 15.2633C63.95 15.5059 65.5874 16.2155 66.9856 17.3254C68.3838 18.4353 69.4969 19.9091 70.2205 21.6086L74.3385 31.2682C74.7692 32.2833 76 32.5536 76.8923 31.9909C78.4584 31.0095 80.2389 30.4936 82.0513 30.4959H88.1436C88.5169 30.5004 88.8782 30.3537 89.1556 30.0849C89.433 29.8161 89.6063 29.4449 89.641 29.045C89.7077 28.1623 89.7436 27.2742 89.7436 26.3694C89.7436 11.4746 77.5897 0 63.3333 0C55.9795 0 49.5128 3.70717 44.8718 8.50663C40.2308 3.70717 33.759 0.00551622 26.4103 0.00551622Z" fill="white"/>
<path d="M64.3949 24.4891C64.1234 23.8522 63.706 23.2999 63.1819 22.884C62.6577 22.4681 62.044 22.2022 61.3982 22.1112C60.7524 22.0202 60.0957 22.1072 59.4897 22.3639C58.8836 22.6206 58.3481 23.0386 57.9334 23.5788L47.3334 37.398H39.7436C38.7236 37.398 37.7453 37.8339 37.024 38.6098C36.3027 39.3857 35.8975 40.4381 35.8975 41.5354C35.8975 42.6327 36.3027 43.6851 37.024 44.4611C37.7453 45.237 38.7236 45.6729 39.7436 45.6729H49.1436C49.7112 45.6731 50.2717 45.5381 50.7851 45.2778C51.2985 45.0174 51.7519 44.638 52.1128 44.1668L59.959 33.9335L69.1539 55.5145C69.4254 56.1514 69.8427 56.7037 70.3669 57.1196C70.891 57.5355 71.5048 57.8014 72.1506 57.8924C72.7964 57.9834 73.4531 57.8964 74.0591 57.6397C74.6651 57.383 75.2006 56.965 75.6154 56.4248L83.8616 45.6674H96.1539C97.1739 45.6674 98.1522 45.2315 98.8735 44.4555C99.5948 43.6796 100 42.6272 100 41.5299C100 40.4326 99.5948 39.3802 98.8735 38.6043C98.1522 37.8283 97.1739 37.3924 96.1539 37.3924H82.0513C81.4842 37.3937 80.9244 37.5299 80.4119 37.7912C79.8995 38.0526 79.4471 38.4325 79.0872 38.904L73.5898 46.0701L64.3949 24.4891Z" fill="white"/>
</svg>
