<svg width="100" height="100" viewBox="0 0 100 100" fill="none" xmlns="http://www.w3.org/2000/svg">
<path d="M60.2466 81.6494L35.1362 67.3123L37.6239 63.0566L62.7294 77.3937L60.2466 81.6494Z" fill="white"/>
<path d="M85.8681 89.8127C93.12 83.0414 97.7153 73.5283 97.7153 62.9108C97.7153 49.829 90.7655 38.03 79.9591 31.4032L92.0661 10.685L90.1646 9.6014L93.1508 4.4676L85.3225 0L82.3298 5.12578L80.3277 3.98279L50.5635 54.9548L53.1632 56.4381L49.4723 62.7502L56.0129 66.4842L59.7054 60.1689L62.3019 61.6522L74.8181 40.2228C78.6769 42.6542 81.8539 46.0074 84.0559 49.973C86.2579 53.9385 87.4139 58.3886 87.4172 62.9124C87.4172 77.7455 75.203 89.8143 60.1975 89.8143H38.2664V100H100V89.8143H85.8713L85.8681 89.8127ZM31.0681 11.4876V3.40167H32.0749L32.0603 1.46244H22.8874L22.9021 3.40167H23.9835V11.4876H17.1392V3.40167H18.1427L18.1313 1.46244H8.95038L8.96824 3.40167H10.0497V11.4876H0V51.9914H41.0318V11.4876H31.0714H31.0681ZM37.5568 48.5624H3.47006V14.9166H10.0481V40.7943C10.0481 42.7528 11.667 44.3437 13.6204 44.3437C15.5771 44.3356 17.1376 42.7496 17.1376 40.7943V14.9166H23.9819V40.7943C23.9819 42.7528 25.6024 44.3437 27.5559 44.3437C29.5125 44.3356 31.073 42.7496 31.0698 40.7943V14.9166H37.5568V48.5624Z" fill="white"/>
</svg>
