<svg width="100" height="100" viewBox="0 0 100 100" fill="none" xmlns="http://www.w3.org/2000/svg">
<path d="M96.2936 18.4314L52.0461 0.444194C51.3331 0.151393 50.5602 0 49.7784 0C48.9967 0 48.2238 0.151393 47.5107 0.444194L3.26325 18.4314C2.30136 18.8263 1.4831 19.4642 0.904929 20.2698C0.32676 21.0755 0.0127799 22.0154 0 22.9787C0 34.9533 2.43361 77.5465 47.0683 99.3231C47.9091 99.7665 48.8629 100 49.8337 100C50.8046 100 51.7584 99.7665 52.5992 99.3231C96.8467 77.597 100.055 35.1049 99.9993 23.0292C99.9612 22.0108 99.5869 21.0268 98.9256 20.2063C98.2642 19.3857 97.3468 18.767 96.2936 18.4314ZM71.7915 53.7994H55.1987V68.9571H44.1369V53.7994H27.5441V43.6942H44.1369V28.5365H55.1987V43.6942H71.7915V53.7994Z" fill="white"/>
</svg>
