<svg width="30" height="25" viewBox="0 0 30 25" fill="none" xmlns="http://www.w3.org/2000/svg">
<path opacity="0.2" d="M8.99976 19.4724C8.99976 20.3471 8.76517 21.2022 8.32566 21.9295C7.88614 22.6568 7.26145 23.2237 6.53057 23.5584C5.79968 23.8931 4.99544 23.9807 4.21954 23.8101C3.44364 23.6394 2.73093 23.2182 2.17154 22.5997C1.61215 21.9812 1.23119 21.1931 1.07686 20.3352C0.922522 19.4773 1.00173 18.5881 1.30447 17.78C1.60722 16.9718 2.11989 16.2811 2.77767 15.7952C3.43544 15.3092 4.20878 15.0498 4.99988 15.0498C6.06071 15.0498 7.0781 15.5158 7.82822 16.3452C8.57834 17.1746 8.99976 18.2995 8.99976 19.4724Z" fill="#322875"/>
<path d="M29.7067 5.42145L25.7068 0.998824C25.5192 0.791358 25.2647 0.674805 24.9994 0.674805C24.734 0.674805 24.4795 0.791358 24.2919 0.998824C24.1043 1.20629 23.9988 1.48767 23.9988 1.78108C23.9988 2.07448 24.1043 2.35586 24.2919 2.56333L26.5856 5.09805H24.9994C18.8333 5.09805 17.3683 8.98443 16.0771 12.412C14.9047 15.523 13.9622 18.0218 9.89233 18.3328C9.63693 16.9922 8.94045 15.8042 7.93791 14.9992C6.93537 14.1941 5.69819 13.8293 4.46623 13.9756C3.23427 14.1218 2.09529 14.7686 1.27012 15.7905C0.444942 16.8125 -0.00764608 18.1369 9.77541e-05 19.5068C0.00784159 20.8768 0.475365 22.1948 1.31203 23.2053C2.14869 24.2157 3.29489 24.8467 4.52841 24.9759C5.76193 25.1051 6.99488 24.7232 7.98825 23.9044C8.98161 23.0856 9.66461 21.8881 9.90483 20.5441C15.3122 20.1778 16.6971 16.5153 17.9221 13.2619C19.1758 9.9353 20.1658 7.30936 24.9994 7.30936H26.5856L24.2919 9.84408C24.1043 10.0515 23.9988 10.3329 23.9988 10.6263C23.9988 10.9197 24.1043 11.2011 24.2919 11.4086C24.4795 11.616 24.734 11.7326 24.9994 11.7326C25.2647 11.7326 25.5192 11.616 25.7068 11.4086L29.7067 6.98596C29.7997 6.88327 29.8735 6.76133 29.9238 6.6271C29.9741 6.49288 30 6.349 30 6.2037C30 6.0584 29.9741 5.91453 29.9238 5.7803C29.8735 5.64608 29.7997 5.52414 29.7067 5.42145ZM4.99998 22.7886C4.40665 22.7886 3.82665 22.594 3.33332 22.2295C2.83998 21.8651 2.45548 21.347 2.22842 20.7409C2.00137 20.1348 1.94196 19.4679 2.05771 18.8245C2.17346 18.181 2.45918 17.59 2.87872 17.1261C3.29827 16.6622 3.8328 16.3463 4.41472 16.2183C4.99665 16.0904 5.59983 16.156 6.14799 16.4071C6.69615 16.6582 7.16468 17.0833 7.49431 17.6288C7.82394 18.1742 7.99989 18.8155 7.99989 19.4716C7.99989 20.3513 7.68383 21.195 7.12123 21.817C6.55864 22.4391 5.7956 22.7886 4.99998 22.7886Z" fill="#322875"/>
</svg>
